<?xml version="1.0" encoding="UTF-8" standalone="no"?>
<!DOCTYPE svg PUBLIC "-//W3C//DTD SVG 1.1//EN"
 "http://www.w3.org/Graphics/SVG/1.1/DTD/svg11.dtd">
<!-- Generated by graphviz version 7.0.4 (20221203.1631)
 -->
<!-- Title: Tri&#45;State Weather Pipeline Pages: 1 -->
<svg width="1358pt" height="1524pt"
 viewBox="0.00 0.00 1358.40 1524.40" xmlns="http://www.w3.org/2000/svg" xmlns:xlink="http://www.w3.org/1999/xlink">
<g id="graph0" class="graph" transform="scale(1 1) rotate(0) translate(43.2 1481.2)">
<title>Tri&#45;State Weather Pipeline</title>
<polygon fill="white" stroke="none" points="-43.2,43.2 -43.2,-1481.2 1315.2,-1481.2 1315.2,43.2 -43.2,43.2"/>
<text text-anchor="middle" x="636" y="-7.6" font-family="Helvetica,sans-Serif" font-size="13.00" fill="#2d3436">Tri&#45;State Weather Pipeline</text>
<g id="clust10" class="cluster">
<title>cluster_Local Dev &#160;(Docker)</title>
<path fill="#e5f5fd" stroke="#aeb6be" d="M481,-30C481,-30 579,-30 579,-30 585,-30 591,-36 591,-42 591,-42 591,-221 591,-221 591,-227 585,-233 579,-233 579,-233 481,-233 481,-233 475,-233 469,-227 469,-221 469,-221 469,-42 469,-42 469,-36 475,-30 481,-30"/>
<text text-anchor="middle" x="530" y="-219.4" font-family="Sans-Serif" font-size="12.00" fill="#2d3436">Local Dev &#160;(Docker)</text>
</g>
<g id="clust1" class="cluster">
<title>cluster_AWS Cloud &#160;(us&#45;east&#45;1)</title>
<path fill="#e5f5fd" stroke="#aeb6be" d="M20,-421C20,-421 1252,-421 1252,-421 1258,-421 1264,-427 1264,-433 1264,-433 1264,-1252 1264,-1252 1264,-1258 1258,-1264 1252,-1264 1252,-1264 20,-1264 20,-1264 14,-1264 8,-1258 8,-1252 8,-1252 8,-433 8,-433 8,-427 14,-421 20,-421"/>
<text text-anchor="middle" x="79" y="-1250.4" font-family="Sans-Serif" font-size="12.00" fill="#2d3436">AWS Cloud &#160;(us&#45;east&#45;1)</text>
</g>
<g id="clust4" class="cluster">
<title>cluster_Ingestion &#160;· &#160;Glue Workflow</title>
<path fill="#ebf3e7" stroke="#aeb6be" d="M463,-716C463,-716 597,-716 597,-716 603,-716 609,-722 609,-728 609,-728 609,-907 609,-907 609,-913 603,-919 597,-919 597,-919 463,-919 463,-919 457,-919 451,-913 451,-907 451,-907 451,-728 451,-728 451,-722 457,-716 463,-716"/>
<text text-anchor="middle" x="530" y="-905.4" font-family="Sans-Serif" font-size="12.00" fill="#2d3436">Ingestion &#160;· &#160;Glue Workflow</text>
</g>
<g id="clust5" class="cluster">
<title>cluster_Storage</title>
<path fill="#ebf3e7" stroke="#aeb6be" d="M745,-429C745,-429 838,-429 838,-429 844,-429 850,-435 850,-441 850,-441 850,-829 850,-829 850,-835 844,-841 838,-841 838,-841 745,-841 745,-841 739,-841 733,-835 733,-829 733,-829 733,-441 733,-441 733,-435 739,-429 745,-429"/>
<text text-anchor="middle" x="762.5" y="-827.4" font-family="Sans-Serif" font-size="12.00" fill="#2d3436">Storage</text>
</g>
<g id="clust6" class="cluster">
<title>cluster_Processing</title>
<path fill="#ebf3e7" stroke="#aeb6be" d="M991,-429C991,-429 1084,-429 1084,-429 1090,-429 1096,-435 1096,-441 1096,-441 1096,-829 1096,-829 1096,-835 1090,-841 1084,-841 1084,-841 991,-841 991,-841 985,-841 979,-835 979,-829 979,-829 979,-441 979,-441 979,-435 985,-429 991,-429"/>
<text text-anchor="middle" x="1017.5" y="-827.4" font-family="Sans-Serif" font-size="12.00" fill="#2d3436">Processing</text>
</g>
<g id="clust7" class="cluster">
<title>cluster_Container Registry</title>
<path fill="#ebf3e7" stroke="#aeb6be" d="M745,-1060C745,-1060 838,-1060 838,-1060 844,-1060 850,-1066 850,-1072 850,-1072 850,-1223 850,-1223 850,-1229 844,-1235 838,-1235 838,-1235 745,-1235 745,-1235 739,-1235 733,-1229 733,-1223 733,-1223 733,-1072 733,-1072 733,-1066 739,-1060 745,-1060"/>
<text text-anchor="middle" x="791" y="-1221.4" font-family="Sans-Serif" font-size="12.00" fill="#2d3436">Container Registry</text>
</g>
<g id="clust8" class="cluster">
<title>cluster_Serving &#160;· &#160;ECS Fargate</title>
<path fill="#ebf3e7" stroke="#aeb6be" d="M745,-849C745,-849 1084,-849 1084,-849 1090,-849 1096,-855 1096,-861 1096,-861 1096,-1040 1096,-1040 1096,-1046 1090,-1052 1084,-1052 1084,-1052 745,-1052 745,-1052 739,-1052 733,-1046 733,-1040 733,-1040 733,-861 733,-861 733,-855 739,-849 745,-849"/>
<text text-anchor="middle" x="804.5" y="-1038.4" font-family="Sans-Serif" font-size="12.00" fill="#2d3436">Serving &#160;· &#160;ECS Fargate</text>
</g>
<g id="clust9" class="cluster">
<title>cluster_Observability</title>
<path fill="#ebf3e7" stroke="#aeb6be" d="M1151,-849C1151,-849 1244,-849 1244,-849 1250,-849 1256,-855 1256,-861 1256,-861 1256,-1040 1256,-1040 1256,-1046 1250,-1052 1244,-1052 1244,-1052 1151,-1052 1151,-1052 1145,-1052 1139,-1046 1139,-1040 1139,-1040 1139,-861 1139,-861 1139,-855 1145,-849 1151,-849"/>
<text text-anchor="middle" x="1182" y="-1038.4" font-family="Sans-Serif" font-size="12.00" fill="#2d3436">Observability</text>
</g>
<g id="clust2" class="cluster">
<title>cluster_Security</title>
<path fill="#ebf3e7" stroke="#aeb6be" d="M188,-850C188,-850 281,-850 281,-850 287,-850 293,-856 293,-862 293,-862 293,-1041 293,-1041 293,-1047 287,-1053 281,-1053 281,-1053 188,-1053 188,-1053 182,-1053 176,-1047 176,-1041 176,-1041 176,-862 176,-862 176,-856 182,-850 188,-850"/>
<text text-anchor="middle" x="206" y="-1039.4" font-family="Sans-Serif" font-size="12.00" fill="#2d3436">Security</text>
</g>
<g id="clust3" class="cluster">
<title>cluster_Orchestration</title>
<path fill="#ebf3e7" stroke="#aeb6be" d="M28,-611C28,-611 281,-611 281,-611 287,-611 293,-617 293,-623 293,-623 293,-830 293,-830 293,-836 287,-842 281,-842 281,-842 28,-842 28,-842 22,-842 16,-836 16,-830 16,-830 16,-623 16,-623 16,-617 22,-611 28,-611"/>
<text text-anchor="middle" x="60" y="-828.4" font-family="Sans-Serif" font-size="12.00" fill="#2d3436">Orchestration</text>
</g>
<!-- 687cd5adf5594ce89e5c4841fa6d1731 -->
<g id="node1" class="node">
<title>687cd5adf5594ce89e5c4841fa6d1731</title>
<image xlink:href="/Users/bryton/Projects/weather_api_datapipeline/.venv/lib/python3.11/site-packages/resources/onprem/network/internet.png" width="101px" height="101px" preserveAspectRatio="xMinYMin meet" x="184" y="-1405.5"/>
<text text-anchor="middle" x="234.5" y="-1287.2" font-family="Helvetica,sans-Serif" font-size="11.00" fill="#2d3436">OpenWeatherMap</text>
<text text-anchor="middle" x="234.5" y="-1275.2" font-family="Helvetica,sans-Serif" font-size="11.00" fill="#2d3436">API</text>
</g>
<!-- 5b58e69cd92e495c87ac4d78f15ac296 -->
<g id="node6" class="node">
<title>5b58e69cd92e495c87ac4d78f15ac296</title>
<image xlink:href="/Users/bryton/Projects/weather_api_datapipeline/.venv/lib/python3.11/site-packages/resources/aws/analytics/glue.png" width="101px" height="101px" preserveAspectRatio="xMinYMin meet" x="479" y="-857.5"/>
<text text-anchor="middle" x="529.5" y="-739.2" font-family="Helvetica,sans-Serif" font-size="11.00" fill="#2d3436">fetch_weather</text>
<text text-anchor="middle" x="529.5" y="-727.2" font-family="Helvetica,sans-Serif" font-size="11.00" fill="#2d3436">(PySpark)</text>
</g>
<!-- 687cd5adf5594ce89e5c4841fa6d1731&#45;&gt;5b58e69cd92e495c87ac4d78f15ac296 -->
<g id="edge1" class="edge">
<title>687cd5adf5594ce89e5c4841fa6d1731&#45;&gt;5b58e69cd92e495c87ac4d78f15ac296</title>
<path fill="none" stroke="#7b8894" d="M284.96,-1355C369.36,-1355 530,-1355 530,-1355 530,-1355 530,-901.45 530,-901.45"/>
<polygon fill="#7b8894" stroke="#7b8894" points="533.5,-901.45 530,-891.45 526.5,-901.45 533.5,-901.45"/>
<text text-anchor="middle" x="368" y="-1358.6" font-family="Sans-Serif" font-size="13.00" fill="#2d3436">REST /weather</text>
</g>
<!-- ebdff84cb53040cb93efa9a280001cf5 -->
<g id="node2" class="node">
<title>ebdff84cb53040cb93efa9a280001cf5</title>
<image xlink:href="/Users/bryton/Projects/weather_api_datapipeline/.venv/lib/python3.11/site-packages/resources/onprem/ci/github-actions.png" width="101px" height="101px" preserveAspectRatio="xMinYMin meet" x="479" y="-380.5"/>
<text text-anchor="middle" x="529.5" y="-262.2" font-family="Helvetica,sans-Serif" font-size="11.00" fill="#2d3436">GitHub Actions</text>
<text text-anchor="middle" x="529.5" y="-250.2" font-family="Helvetica,sans-Serif" font-size="11.00" fill="#2d3436">CI/CD</text>
</g>
<!-- 9d798d83811a439ba67c04503a24e42d -->
<g id="node11" class="node">
<title>9d798d83811a439ba67c04503a24e42d</title>
<image xlink:href="/Users/bryton/Projects/weather_api_datapipeline/.venv/lib/python3.11/site-packages/resources/aws/compute/ec2-container-registry.png" width="101px" height="101px" preserveAspectRatio="xMinYMin meet" x="741" y="-1187.5"/>
<text text-anchor="middle" x="791.5" y="-1071.7" font-family="Helvetica,sans-Serif" font-size="11.00" fill="#2d3436">ECR</text>
</g>
<!-- ebdff84cb53040cb93efa9a280001cf5&#45;&gt;9d798d83811a439ba67c04503a24e42d -->
<g id="edge12" class="edge">
<title>ebdff84cb53040cb93efa9a280001cf5&#45;&gt;9d798d83811a439ba67c04503a24e42d</title>
<path fill="none" stroke="#7b8894" d="M579.97,-330C617.05,-330 661,-330 661,-330 661,-330 661,-1137 661,-1137 661,-1137 729.53,-1137 729.53,-1137"/>
<polygon fill="#7b8894" stroke="#7b8894" points="729.53,-1140.5 739.53,-1137 729.53,-1133.5 729.53,-1140.5"/>
<text text-anchor="middle" x="675" y="-333.6" font-family="Sans-Serif" font-size="13.00" fill="#2d3436">docker push</text>
</g>
<!-- 7e15aa30cf8545eba610b0c42c3feff2 -->
<g id="node3" class="node">
<title>7e15aa30cf8545eba610b0c42c3feff2</title>
<image xlink:href="/Users/bryton/Projects/weather_api_datapipeline/.venv/lib/python3.11/site-packages/resources/aws/security/secrets-manager.png" width="101px" height="101px" preserveAspectRatio="xMinYMin meet" x="184" y="-991.5"/>
<text text-anchor="middle" x="234.5" y="-873.2" font-family="Helvetica,sans-Serif" font-size="11.00" fill="#2d3436">Secrets Manager</text>
<text text-anchor="middle" x="234.5" y="-861.2" font-family="Helvetica,sans-Serif" font-size="11.00" fill="#2d3436">(API Key)</text>
</g>
<!-- 7e15aa30cf8545eba610b0c42c3feff2&#45;&gt;5b58e69cd92e495c87ac4d78f15ac296 -->
<g id="edge2" class="edge">
<title>7e15aa30cf8545eba610b0c42c3feff2&#45;&gt;5b58e69cd92e495c87ac4d78f15ac296</title>
<path fill="none" stroke="#7b8894" stroke-dasharray="5,2" d="M284.88,-874C284.88,-874 467.82,-874 467.82,-874"/>
<polygon fill="#7b8894" stroke="#7b8894" points="467.82,-877.5 477.82,-874 467.82,-870.5 467.82,-877.5"/>
</g>
<!-- 66e5dc7f4eb04b21869089fa8b665ed1 -->
<g id="node4" class="node">
<title>66e5dc7f4eb04b21869089fa8b665ed1</title>
<image xlink:href="/Users/bryton/Projects/weather_api_datapipeline/.venv/lib/python3.11/site-packages/resources/aws/integration/eventbridge.png" width="101px" height="101px" preserveAspectRatio="xMinYMin meet" x="24" y="-766.5"/>
<text text-anchor="middle" x="74.5" y="-646.2" font-family="Helvetica,sans-Serif" font-size="11.00" fill="#2d3436">EventBridge</text>
<text text-anchor="middle" x="74.5" y="-634.2" font-family="Helvetica,sans-Serif" font-size="11.00" fill="#2d3436">Scheduler</text>
<text text-anchor="middle" x="74.5" y="-622.2" font-family="Helvetica,sans-Serif" font-size="11.00" fill="#2d3436">(30 min)</text>
</g>
<!-- 218ec2c45b4b4b828cf2e304f250228a -->
<g id="node5" class="node">
<title>218ec2c45b4b4b828cf2e304f250228a</title>
<image xlink:href="/Users/bryton/Projects/weather_api_datapipeline/.venv/lib/python3.11/site-packages/resources/aws/compute/lambda.png" width="101px" height="101px" preserveAspectRatio="xMinYMin meet" x="184" y="-776.5"/>
<text text-anchor="middle" x="234.5" y="-658.2" font-family="Helvetica,sans-Serif" font-size="11.00" fill="#2d3436">Trigger</text>
<text text-anchor="middle" x="234.5" y="-646.2" font-family="Helvetica,sans-Serif" font-size="11.00" fill="#2d3436">Lambda</text>
</g>
<!-- 66e5dc7f4eb04b21869089fa8b665ed1&#45;&gt;218ec2c45b4b4b828cf2e304f250228a -->
<g id="edge3" class="edge">
<title>66e5dc7f4eb04b21869089fa8b665ed1&#45;&gt;218ec2c45b4b4b828cf2e304f250228a</title>
<path fill="none" stroke="#7b8894" d="M124.69,-726C124.69,-726 172.7,-726 172.7,-726"/>
<polygon fill="#7b8894" stroke="#7b8894" points="172.7,-729.5 182.7,-726 172.7,-722.5 172.7,-729.5"/>
</g>
<!-- 218ec2c45b4b4b828cf2e304f250228a&#45;&gt;5b58e69cd92e495c87ac4d78f15ac296 -->
<g id="edge4" class="edge">
<title>218ec2c45b4b4b828cf2e304f250228a&#45;&gt;5b58e69cd92e495c87ac4d78f15ac296</title>
<path fill="none" stroke="#7b8894" d="M284.88,-766.5C284.88,-766.5 467.82,-766.5 467.82,-766.5"/>
<polygon fill="#7b8894" stroke="#7b8894" points="467.82,-770 477.82,-766.5 467.82,-763 467.82,-770"/>
<text text-anchor="middle" x="368" y="-777.6" font-family="Sans-Serif" font-size="13.00" fill="#2d3436">StartWorkflowRun</text>
</g>
<!-- adf38d8b973b428193cec4daca643bc3 -->
<g id="node7" class="node">
<title>adf38d8b973b428193cec4daca643bc3</title>
<image xlink:href="/Users/bryton/Projects/weather_api_datapipeline/.venv/lib/python3.11/site-packages/resources/aws/storage/simple-storage-service-s3.png" width="101px" height="101px" preserveAspectRatio="xMinYMin meet" x="741" y="-570.5"/>
<text text-anchor="middle" x="791.5" y="-452.2" font-family="Helvetica,sans-Serif" font-size="11.00" fill="#2d3436">Raw S3</text>
<text text-anchor="middle" x="791.5" y="-440.2" font-family="Helvetica,sans-Serif" font-size="11.00" fill="#2d3436">JSON</text>
</g>
<!-- 5b58e69cd92e495c87ac4d78f15ac296&#45;&gt;adf38d8b973b428193cec4daca643bc3 -->
<g id="edge5" class="edge">
<title>5b58e69cd92e495c87ac4d78f15ac296&#45;&gt;adf38d8b973b428193cec4daca643bc3</title>
<path fill="none" stroke="#7b8894" d="M530,-724.37C530,-639.59 530,-520 530,-520 530,-520 729.57,-520 729.57,-520"/>
<polygon fill="#7b8894" stroke="#7b8894" points="729.57,-523.5 739.57,-520 729.57,-516.5 729.57,-523.5"/>
</g>
<!-- fff9abb3180c4b2cad7e327622c9e81e -->
<g id="node9" class="node">
<title>fff9abb3180c4b2cad7e327622c9e81e</title>
<image xlink:href="/Users/bryton/Projects/weather_api_datapipeline/.venv/lib/python3.11/site-packages/resources/aws/analytics/glue.png" width="101px" height="101px" preserveAspectRatio="xMinYMin meet" x="987" y="-570.5"/>
<text text-anchor="middle" x="1037.5" y="-452.2" font-family="Helvetica,sans-Serif" font-size="11.00" fill="#2d3436">process_weather</text>
<text text-anchor="middle" x="1037.5" y="-440.2" font-family="Helvetica,sans-Serif" font-size="11.00" fill="#2d3436">(PySpark)</text>
</g>
<!-- adf38d8b973b428193cec4daca643bc3&#45;&gt;fff9abb3180c4b2cad7e327622c9e81e -->
<g id="edge6" class="edge">
<title>adf38d8b973b428193cec4daca643bc3&#45;&gt;fff9abb3180c4b2cad7e327622c9e81e</title>
<path fill="none" stroke="#7b8894" d="M841.88,-520C841.88,-520 975.68,-520 975.68,-520"/>
<polygon fill="#7b8894" stroke="#7b8894" points="975.68,-523.5 985.68,-520 975.68,-516.5 975.68,-523.5"/>
</g>
<!-- 48e257ec1c0648ba9630a19261098415 -->
<g id="node8" class="node">
<title>48e257ec1c0648ba9630a19261098415</title>
<image xlink:href="/Users/bryton/Projects/weather_api_datapipeline/.venv/lib/python3.11/site-packages/resources/aws/storage/simple-storage-service-s3.png" width="101px" height="101px" preserveAspectRatio="xMinYMin meet" x="741" y="-779.5"/>
<text text-anchor="middle" x="791.5" y="-661.2" font-family="Helvetica,sans-Serif" font-size="11.00" fill="#2d3436">Processed S3</text>
<text text-anchor="middle" x="791.5" y="-649.2" font-family="Helvetica,sans-Serif" font-size="11.00" fill="#2d3436">Parquet (hive)</text>
</g>
<!-- 44f0157627e64eaa8856b51c711bd81e -->
<g id="node10" class="node">
<title>44f0157627e64eaa8856b51c711bd81e</title>
<image xlink:href="/Users/bryton/Projects/weather_api_datapipeline/.venv/lib/python3.11/site-packages/resources/aws/analytics/athena.png" width="101px" height="101px" preserveAspectRatio="xMinYMin meet" x="987" y="-779.5"/>
<text text-anchor="middle" x="1037.5" y="-661.2" font-family="Helvetica,sans-Serif" font-size="11.00" fill="#2d3436">Glue Catalog</text>
<text text-anchor="middle" x="1037.5" y="-649.2" font-family="Helvetica,sans-Serif" font-size="11.00" fill="#2d3436">+ Athena</text>
</g>
<!-- 48e257ec1c0648ba9630a19261098415&#45;&gt;44f0157627e64eaa8856b51c711bd81e -->
<g id="edge8" class="edge">
<title>48e257ec1c0648ba9630a19261098415&#45;&gt;44f0157627e64eaa8856b51c711bd81e</title>
<path fill="none" stroke="#7b8894" d="M841.88,-729C841.88,-729 975.68,-729 975.68,-729"/>
<polygon fill="#7b8894" stroke="#7b8894" points="975.68,-732.5 985.68,-729 975.68,-725.5 975.68,-732.5"/>
</g>
<!-- 0ed35027b17844b799755f3546ac513d -->
<g id="node13" class="node">
<title>0ed35027b17844b799755f3546ac513d</title>
<image xlink:href="/Users/bryton/Projects/weather_api_datapipeline/.venv/lib/python3.11/site-packages/resources/aws/compute/elastic-container-service.png" width="101px" height="101px" preserveAspectRatio="xMinYMin meet" x="987" y="-990.5"/>
<text text-anchor="middle" x="1037.5" y="-872.2" font-family="Helvetica,sans-Serif" font-size="11.00" fill="#2d3436">ECS Fargate</text>
<text text-anchor="middle" x="1037.5" y="-860.2" font-family="Helvetica,sans-Serif" font-size="11.00" fill="#2d3436">Streamlit &#160;:8501</text>
</g>
<!-- 48e257ec1c0648ba9630a19261098415&#45;&gt;0ed35027b17844b799755f3546ac513d -->
<g id="edge9" class="edge">
<title>48e257ec1c0648ba9630a19261098415&#45;&gt;0ed35027b17844b799755f3546ac513d</title>
<path fill="none" stroke="#7b8894" d="M792,-811.96C792,-839.96 792,-864.25 792,-864.25 792,-864.25 975.71,-864.25 975.71,-864.25"/>
<polygon fill="#7b8894" stroke="#7b8894" points="975.71,-867.75 985.71,-864.25 975.71,-860.75 975.71,-867.75"/>
<text text-anchor="middle" x="914.5" y="-852.6" font-family="Sans-Serif" font-size="13.00" fill="#2d3436">DuckDB httpfs</text>
</g>
<!-- fff9abb3180c4b2cad7e327622c9e81e&#45;&gt;48e257ec1c0648ba9630a19261098415 -->
<g id="edge7" class="edge">
<title>fff9abb3180c4b2cad7e327622c9e81e&#45;&gt;48e257ec1c0648ba9630a19261098415</title>
<path fill="none" stroke="#7b8894" d="M1038,-602.92C1038,-607.93 1038,-611 1038,-611 1038,-611 792,-611 792,-611 792,-611 792,-634.57 792,-634.57"/>
<polygon fill="#7b8894" stroke="#7b8894" points="788.5,-634.57 792,-644.57 795.5,-634.57 788.5,-634.57"/>
</g>
<!-- 9d798d83811a439ba67c04503a24e42d&#45;&gt;0ed35027b17844b799755f3546ac513d -->
<g id="edge13" class="edge">
<title>9d798d83811a439ba67c04503a24e42d&#45;&gt;0ed35027b17844b799755f3546ac513d</title>
<path fill="none" stroke="#7b8894" d="M792,-1068.58C792,-1041.08 792,-1015.75 792,-1015.75 792,-1015.75 975.71,-1015.75 975.71,-1015.75"/>
<polygon fill="#7b8894" stroke="#7b8894" points="975.71,-1019.25 985.71,-1015.75 975.71,-1012.25 975.71,-1019.25"/>
<text text-anchor="middle" x="914.5" y="-1066.6" font-family="Sans-Serif" font-size="13.00" fill="#2d3436">pull on deploy</text>
</g>
<!-- 5053e6ba9d324f298f764fb402a6c754 -->
<g id="node12" class="node">
<title>5053e6ba9d324f298f764fb402a6c754</title>
<image xlink:href="/Users/bryton/Projects/weather_api_datapipeline/.venv/lib/python3.11/site-packages/resources/aws/network/elb-application-load-balancer.png" width="101px" height="101px" preserveAspectRatio="xMinYMin meet" x="741" y="-990.5"/>
<text text-anchor="middle" x="791.5" y="-874.7" font-family="Helvetica,sans-Serif" font-size="11.00" fill="#2d3436">ALB &#160;:80</text>
</g>
<!-- 5053e6ba9d324f298f764fb402a6c754&#45;&gt;0ed35027b17844b799755f3546ac513d -->
<g id="edge10" class="edge">
<title>5053e6ba9d324f298f764fb402a6c754&#45;&gt;0ed35027b17844b799755f3546ac513d</title>
<path fill="none" stroke="#7b8894" d="M841.88,-940C841.88,-940 975.68,-940 975.68,-940"/>
<polygon fill="#7b8894" stroke="#7b8894" points="975.68,-943.5 985.68,-940 975.68,-936.5 975.68,-943.5"/>
</g>
<!-- 69a15e0d5cf84c82a382bf7198e77f3e -->
<g id="node14" class="node">
<title>69a15e0d5cf84c82a382bf7198e77f3e</title>
<image xlink:href="/Users/bryton/Projects/weather_api_datapipeline/.venv/lib/python3.11/site-packages/resources/aws/management/cloudwatch.png" width="101px" height="101px" preserveAspectRatio="xMinYMin meet" x="1147" y="-990.5"/>
<text text-anchor="middle" x="1197.5" y="-872.2" font-family="Helvetica,sans-Serif" font-size="11.00" fill="#2d3436">CloudWatch</text>
<text text-anchor="middle" x="1197.5" y="-860.2" font-family="Helvetica,sans-Serif" font-size="11.00" fill="#2d3436">Logs &#160;(7d)</text>
</g>
<!-- 0ed35027b17844b799755f3546ac513d&#45;&gt;69a15e0d5cf84c82a382bf7198e77f3e -->
<g id="edge11" class="edge">
<title>0ed35027b17844b799755f3546ac513d&#45;&gt;69a15e0d5cf84c82a382bf7198e77f3e</title>
<path fill="none" stroke="#7b8894" d="M1087.69,-940C1087.69,-940 1135.7,-940 1135.7,-940"/>
<polygon fill="#7b8894" stroke="#7b8894" points="1135.7,-943.5 1145.7,-940 1135.7,-936.5 1135.7,-943.5"/>
</g>
<!-- de46aa2ed24041068a5d787de2e29410 -->
<g id="node15" class="node">
<title>de46aa2ed24041068a5d787de2e29410</title>
<image xlink:href="/Users/bryton/Projects/weather_api_datapipeline/.venv/lib/python3.11/site-packages/resources/onprem/workflow/airflow.png" width="101px" height="101px" preserveAspectRatio="xMinYMin meet" x="479" y="-171.5"/>
<text text-anchor="middle" x="529.5" y="-53.2" font-family="Helvetica,sans-Serif" font-size="11.00" fill="#2d3436">Airflow +</text>
<text text-anchor="middle" x="529.5" y="-41.2" font-family="Helvetica,sans-Serif" font-size="11.00" fill="#2d3436">LocalStack</text>
</g>
<!-- de46aa2ed24041068a5d787de2e29410&#45;&gt;adf38d8b973b428193cec4daca643bc3 -->
<g id="edge14" class="edge">
<title>de46aa2ed24041068a5d787de2e29410&#45;&gt;adf38d8b973b428193cec4daca643bc3</title>
<path fill="none" stroke="#7b8894" stroke-dasharray="5,2" d="M579.8,-121C656.02,-121 792,-121 792,-121 792,-121 792,-425.81 792,-425.81"/>
<polygon fill="#7b8894" stroke="#7b8894" points="788.5,-425.81 792,-435.81 795.5,-425.81 788.5,-425.81"/>
<text text-anchor="middle" x="675" y="-198.6" font-family="Sans-Serif" font-size="13.00" fill="#2d3436">local only</text>
</g>
</g>
</svg>
